<svg width="34" height="42" viewBox="0 0 34 42" fill="none" xmlns="http://www.w3.org/2000/svg">
<path d="M16.6067 28.8496C7.40869 28.8496 0 31.6593 0 35.2379C0 38.8141 7.40869 41.6263 16.6067 41.6263C25.8047 41.6263 33.2134 38.8166 33.2134 35.2379C33.2134 31.6594 25.8047 28.8496 16.6067 28.8496ZM16.6067 37.7913C10.2184 37.7913 5.10919 36.6416 5.10919 35.2355C5.10919 33.8294 10.2184 32.6797 16.6067 32.6797C22.995 32.6797 28.1042 33.8294 28.1042 35.2355C28.1042 36.6416 22.995 37.7913 16.6067 37.7913Z" fill="#52B5AF"/>
<path d="M16.6069 0.745605C10.2186 0.745605 5.10938 5.85479 5.10938 12.2431C5.10938 18.6314 16.6069 36.5148 16.6069 36.5148C16.6069 36.5148 28.1044 18.629 28.1044 12.2431C28.1044 5.85479 22.9952 0.745605 16.6069 0.745605ZM16.6069 17.3523C13.7972 17.3523 11.4977 15.0528 11.4977 12.2431C11.4977 9.43344 13.7972 7.13393 16.6069 7.13393C19.4166 7.13393 21.7161 9.43344 21.7161 12.2431C21.7161 15.0528 19.4166 17.3523 16.6069 17.3523Z" fill="#52B5AF"/>
</svg>
