<svg width="26" height="44" viewBox="0 0 26 44" fill="none" xmlns="http://www.w3.org/2000/svg">
<path d="M14.2294 7.2362C16.2241 7.3914 17.9672 5.89877 18.1229 3.91608C18.2781 1.90994 16.785 0.178265 14.7908 0.011086C12.8086 -0.144116 11.065 1.34851 10.8978 3.34268C10.7426 5.33685 12.2352 7.0805 14.2294 7.2362Z" fill="#52B5AF"/>
<path d="M11.1609 8.7287C11.8775 8.22717 12.7494 7.89281 13.6925 7.96417C14.9466 8.07147 15.9732 8.836 16.582 9.77918L20.2365 17.0277L25.2164 20.4552C25.6461 20.7775 25.8971 21.315 25.8611 21.8764C25.7893 22.7837 25.0013 23.4529 24.094 23.381C23.831 23.3571 23.616 23.2618 23.3535 23.142L17.9199 19.3922C17.7527 19.261 17.6095 19.0938 17.5142 18.9146L16.1408 16.2038L14.505 23.4289L20.9296 31.0119C21.0614 31.2509 21.1687 31.5134 21.2161 31.7884L22.9597 40.9592C22.9478 41.1623 22.9832 41.2816 22.9712 41.4613C22.8639 42.8102 21.6817 43.8138 20.3323 43.706C19.2214 43.6226 18.386 42.7867 18.123 41.7712L16.4747 33.1852L11.2682 27.4652L10.0505 33.03C10.0151 33.2925 9.66828 33.8419 9.56098 34.069L4.5571 42.5118C4.05557 43.2878 3.21968 43.7778 2.26451 43.706C0.915106 43.5987 -0.0999422 42.4164 0.00785056 41.067C0.0318045 40.6848 0.198983 40.2905 0.342208 40.0161L4.99975 32.1941L8.86882 14.9982L6.33718 17.0402L4.99975 23.1784C4.8206 23.9544 4.10398 24.5997 3.25611 24.5278C2.34835 24.456 1.67964 23.68 1.7515 22.7722C1.76348 22.7003 1.76348 22.629 1.78743 22.5571L3.38785 15.4044C3.47119 15.094 3.65035 14.819 3.88939 14.6159L11.1609 8.7287Z" fill="#52B5AF"/>
</svg>
