<svg width="40" height="39" viewBox="0 0 40 39" fill="none" xmlns="http://www.w3.org/2000/svg">
<path d="M37.7771 24.7909H12.3334C12.2229 24.568 12.1104 24.1243 12.3334 23.6805C12.6667 22.6805 13.7771 21.9035 15.6667 21.4576L35.8896 19.2347C37 19.1243 37.7792 18.1243 37.7792 17.0118V7.01175C37.7792 5.78882 36.7792 4.78882 35.5563 4.78882L8.22295 4.7909L7.77712 2.12423C7.55629 1.12423 6.66672 0.347168 5.55627 0.347168H2.22293C1 0.347168 0 1.34717 0 2.5701C0 3.79303 1 4.79303 2.22293 4.79303H3.7792L7.8896 25.3493V25.4597C8.33335 27.6826 10 29.1264 11.8896 29.1264L37.7771 29.1243C39 29.1243 40 28.1243 40 26.9014C40 25.6805 39 24.791 37.7771 24.791L37.7771 24.7909ZM15.5563 17.0139V9.23682H20V16.4598L15.5563 17.0139ZM22.223 9.23468H26.6667V15.791L22.223 16.2347V9.23468ZM33.3334 15.0139L28.8896 15.4576V9.2347H33.3334V15.0139ZM13.3334 9.23468V17.4576C12.4438 17.7909 11.6667 18.1243 11 18.568L9.22295 9.23468H13.3334Z" fill="#52B5AF"/>
<path d="M9.9987 34.7913C9.9987 36.633 8.50702 38.1247 6.66536 38.1247C4.82371 38.1247 3.33203 36.633 3.33203 34.7913C3.33203 32.9497 4.82371 31.458 6.66536 31.458C8.50702 31.458 9.9987 32.9497 9.9987 34.7913Z" fill="#52B5AF"/>
<path d="M36.6667 34.7913C36.6667 36.633 35.175 38.1247 33.3333 38.1247C31.4917 38.1247 30 36.633 30 34.7913C30 32.9497 31.4917 31.458 33.3333 31.458C35.175 31.458 36.6667 32.9497 36.6667 34.7913Z" fill="#52B5AF"/>
</svg>
