<svg width="47" height="34" viewBox="0 0 47 34" fill="none" xmlns="http://www.w3.org/2000/svg">
<path d="M44.4151 12.0516L33.3008 7.70657V0.424805H28.1916V5.79031L15.0342 0.681122C14.1408 0.297872 13.1179 0.554172 12.3514 1.19132L0.853921 11.4122C-0.168898 12.3056 -0.29583 13.968 0.597622 14.9883C1.2348 15.5009 1.87431 15.7548 2.64081 15.7548H3.91749V33.6407H11.5825V18.3107H19.2475V33.6407H42.2425V17.034H43.5192C44.5421 17.034 45.5624 16.3944 45.9457 15.374C46.4583 14.095 45.8187 12.562 44.4151 12.0517L44.4151 12.0516ZM37.1333 18.3106V22.1431H32.0242V18.3106H37.1333ZM24.3567 18.3106H29.4659V22.1431H24.3567V18.3106ZM24.3567 28.5314V24.6989H29.4659V28.5314H24.3567ZM37.1333 28.5314H32.0242V24.6989H37.1333V28.5314Z" fill="#52B5AF"/>
</svg>
